<svg width="26" height="31" viewBox="0 0 26 31" fill="none" xmlns="http://www.w3.org/2000/svg"><path d="M5.538 0c-1.063 0-1.063 1.5831 0 1.5831h6.6435v1.6042C5.3785 3.62 0 9.4142 0 16.4854c0 4.0105 1.7432 7.6305 4.4963 10.0685.4783.4221.5421 1.1715.1063 1.6358l-1.5307 1.5515c-.744.686.3614 1.7519 1.0311 1.0026l1.9984-2.0369c.3507-.3377.8716-.4222 1.3074-.2111a12.7023 12.7023 0 005.5253 1.2992 12.7045 12.7045 0 005.5401-1.2359c.4251-.2111.9566-.1266 1.2968.2111l1.9345 1.9736c.6803.6332 1.6583-.3166 1.0417-1.0026l-1.4456-1.4776c-.4464-.4538-.3826-1.2031.1063-1.6359a13.4622 13.4622 0 003.4027-4.583 13.376 13.376 0 001.1893-5.5699c0-7.0712-5.4105-12.8759-12.224-13.2875V1.5831h6.6435c1.0629 0 1.0629-1.5831 0-1.5831H5.538zM1.435 16.4748c0-6.533 5.1766-11.8205 11.5649-11.8205 6.3778 0 11.5544 5.2876 11.5544 11.8205 0 6.5435-5.1766 11.8416-11.5544 11.8416-6.3777 0-11.565-5.2981-11.565-11.8416zm10.7571-8.095c0-1.0975 1.6582-1.0975 1.6582 0v8.6333a.8413.8413 0 01-.2491.597.8534.8534 0 01-.6013.2473.8112.8112 0 01-.5675-.2312.7995.7995 0 01-.2403-.5604v-8.686zm-4.9746 2.6175c.3072 0 .602-.1212.8192-.337a1.146 1.146 0 00.3394-.8134c0-.3051-.122-.5977-.3394-.8135a1.1628 1.1628 0 00-.8192-.3369 1.1616 1.1616 0 00-.7468.3715 1.1458 1.1458 0 00-.301.7736c0 .2861.1073.5618.301.7736.1938.2117.46.3441.7468.3715v.0106zm11.5543 0c.3073 0 .602-.1212.8193-.337a1.1464 1.1464 0 00.3393-.8134c0-.3051-.1221-.5977-.3393-.8135a1.163 1.163 0 00-.8193-.3369 1.1614 1.1614 0 00-.7467.3715 1.1455 1.1455 0 00-.3011.7736c0 .2861.1073.5618.3011.7736.1937.2117.4599.3441.7467.3715v.0106zM8.3761 23.5882c0 1.5303-2.3173 1.5303-2.3173 0s2.3173-1.5303 2.3173 0zm4.6238 3.4406a1.1623 1.1623 0 00.89-.2936 1.1528 1.1528 0 00.2804-.3859 1.1446 1.1446 0 000-.9312 1.1518 1.1518 0 00-.2804-.3859 1.1623 1.1623 0 00-.89-.2936 1.1614 1.1614 0 00-.7467.3715 1.146 1.146 0 00-.301.7736c0 .286.1073.5618.301.7735.1937.2118.46.3442.7467.3716zm-8.089-10.3851a1.1426 1.1426 0 01-.0539.4728 1.1485 1.1485 0 01-.2419.4108 1.1582 1.1582 0 01-.3887.2784 1.1656 1.1656 0 01-.9377 0 1.1583 1.1583 0 01-.3887-.2784 1.1485 1.1485 0 01-.242-.4108 1.1426 1.1426 0 01-.0538-.4728 1.1472 1.1472 0 01.3742-.7414c.2133-.1924.491-.299.7792-.299.288 0 .5658.1066.779.299.2133.1923.3467.4566.3742.7414zM22.237 17.794a1.1645 1.1645 0 00.89-.2936 1.1518 1.1518 0 00.2804-.3859 1.1443 1.1443 0 00-.2804-1.317 1.159 1.159 0 00-.4138-.2402 1.1663 1.1663 0 00-.4762-.0535 1.1618 1.1618 0 00-.7467.3716 1.1459 1.1459 0 00-.3011.7735c0 .2861.1074.5619.3011.7736.1937.2117.4599.3442.7467.3715zm-2.3066 5.8047c0 1.5198-2.3172 1.5198-2.3172-.0105s2.3172-1.5303 2.3172 0v.0105z" fill="#fff"/></svg>