<svg width="25" height="30" viewBox="0 0 25 30" fill="none" xmlns="http://www.w3.org/2000/svg"><path fill-rule="evenodd" clip-rule="evenodd" d="M18.6173.0761a1 1 0 011.0898.2168c.9085.9085 2.0967 2.8778 3.0588 5.918C23.7373 9.2803 24.5 13.508 24.5 19c0 .5523-.4477 1-1 1H20v9c0 .5523-.4477 1-1 1s-1-.4477-1-1V1a1 1 0 01.6173-.9239zM20 18h2.4912c-.0859-4.8164-.7861-8.5124-1.6321-11.1858-.2784-.8796-.5706-1.6427-.8591-2.2952V18zM6 0c.5523 0 1 .4477 1 1v28c0 .5523-.4477 1-1 1s-1-.4477-1-1V1c0-.5523.4477-1 1-1z" fill="#fff"/><path fill-rule="evenodd" clip-rule="evenodd" d="M1.5 0c.5523 0 1 .4477 1 1v5.5c0 .5569.192 1.3152.7009 1.9166C3.68 8.9828 4.5145 9.5 5.9999 9.5c.5523 0 1 .4477 1 1s-.4477 1-1 1c-2.0144 0-3.43-.7328-4.3258-1.7916C.808 8.6848.5 7.4431.5 6.5V1c0-.5523.4477-1 1-1z" fill="#fff"/><path fill-rule="evenodd" clip-rule="evenodd" d="M10.5 0c-.5523 0-1 .4477-1 1v5.5c0 .5569-.192 1.3152-.7009 1.9166C8.32 8.9828 7.4854 9.5 6 9.5c-.5522 0-.9998.4477-.9998 1s.4476 1 .9998 1c2.0145 0 3.4301-.7328 4.326-1.7916C11.192 8.6848 11.5 7.4431 11.5 6.5V1c0-.5523-.4477-1-1-1z" fill="#fff"/></svg>