<svg class="main-header__icon icon-header" width="202" height="59" fill="none" aria-label="CAT ENERGY."><g class="icon-header__min-cat-superman"><path d="M6.07 20.72v-2.26c6.68-.92 13.42-1.36 20.17-1.33 0 .6 0 1.21-.06 1.82a25.52 25.52 0 0 1 6-1.82A16.67 16.67 0 0 0 .19 20.39l5.88.33zm21.17 3.51c-1.16 1.28-1.39 1.2-1.39 3.45v9.18A16.64 16.64 0 0 0 33.32 23a17.3 17.3 0 0 0-.32-3.1 33.1 33.1 0 0 0-5.76 4.33zM6.36 25.72s-3.79-1.44-5.19-1.83A8.54 8.54 0 0 0 0 23.61a16.65 16.65 0 0 0 8.68 14L6.36 25.72z" fill="#FDC305"/><path d="M26.29 17.12A89.8 89.8 0 0 0 24.89.65S24.75-.64 24 .41c-.59 1.25-1 2.58-1.2 3.94a70.34 70.34 0 0 0-12.77.34C9.24 2 7.85.75 7.18 1c-.67.25-.72 3.31-.72 3.31l-.33 14.1c6.68-.9 13.42-1.34 20.16-1.29z" fill="#F06351"/><path d="M12.41 14c0-.09 1 .68 1.41.92.41.24.61.42.61.59 0 .17-.27.34-.63.34s-.91-.12-1-.27h1.23A8.34 8.34 0 0 1 12.41 14zm7.48.11-1.09 1.33c0 .06-.17.35.18.3.41-.06.82-.16 1.22-.29.11 0 .07-.19-.11-.17-.18.02-.69.05-1 .11l.84-1.26s.07-.13-.04-.02zm-3.14 6.09c.46-.2.85-.56 1.09-1 .28-.65 0-.91-.44-1-.6-.11-1.22.01-1.74.34-.39.36-.34.72-.05 1 .35.27.73.49 1.14.66z" fill="#000"/><path d="M16.35 21.45c-.11.23-.27.43-.46.6-.28.23-.63.36-1 .38a2.15 2.15 0 0 1-1.47-.43 2.3 2.3 0 0 1-.53-.44c-.1-.11-.22-.2-.36-.26 0 0 .75 4.1 2.57 4.75 1.82.65 2.14-.75 2.2-1.13a5.61 5.61 0 0 0-.82-3.23c-.02-.31-.03-.11-.13-.24z" fill="#F06351"/><path d="M14.71 22.59a3.44 3.44 0 0 1-2.36-1.47.14.14 0 0 1 .03-.15.14.14 0 0 1 .2 0c.5.7 1.26 1.16 2.11 1.3a2.1 2.1 0 0 0 1.63-1l.14-.19.1.21s.37.76 1 .8c.63.04 1.05-.41 1.61-1.28a.14.14 0 0 1 .2 0 .15.15 0 0 1 .05.2c-.64 1-1.27 1.44-1.88 1.4a1.55 1.55 0 0 1-1.12-.76 2.26 2.26 0 0 1-1.71.94z" fill="#000"/><path d="M26.24 18.92a58.63 58.63 0 0 0-5.07 5.19A31.63 31.63 0 0 1 15.88 29c-.22-.53-1.62-1.51-1.62-1.51s-3.13-2.14-5.18-3.82a34.14 34.14 0 0 1-3.13-3l-2-.11c2.89 4.2 7.12 7.3 12 8.8.86-.14 3.27-1.86 5.07-3.26a58.13 58.13 0 0 0 5.94-5.89c.5-.59.89-1.27 1.14-2-1.1.39-1.86.71-1.86.71z" fill="#F06351"/></g><path d="M91.26 29.54a6.87 6.87 0 0 1-1.26-4.3v-6.4c-.1-1.54.3-3.08 1.19-4.38.86-1 2.2-1.46 4.18-1.46 1.98 0 3.24.46 4.03 1.3a5.42 5.42 0 0 1 1.19 3.78v1.54h-3.87v-1.77a3.7 3.7 0 0 0-.24-1.54 1.16 1.16 0 0 0-1.1-.62c-.56 0-.95.16-1.11.54a4.85 4.85 0 0 0-.24 1.7v8.22c-.04.56.07 1.12.32 1.62.15.38.55.54 1.1.54.56 0 .87-.16 1.03-.54.18-.52.26-1.07.24-1.62v-1.84h3.87v1.54a5.78 5.78 0 0 1-1.19 3.84c-.79.93-2.13 1.39-4.03 1.39-1.9-.08-3.32-.54-4.1-1.54zm13.99-16.31h4.5l3.33 17.54h-3.64l-.63-3.7h-2.6l-.64 3.7h-3.72l3.4-17.54zm3.24 11.54-.94-6.85-.95 6.85h1.9zm7.35-8.62h-2.68v-2.92h9.4v2.85h-2.69v14.69h-4.03V16.15zm13.91-2.92h6.96v1.85h-4.5v5.77h3.63v1.77h-3.64v6.46h4.5v1.77h-7.03V13.23h.08zm9.01 0h1.74l5.14 11.62V13.23h2.05v17.54h-1.58l-5.22-12v12h-2.13V13.23zm11.3 0h6.96v1.85h-4.5v5.77h3.63v1.77h-3.64v6.46h4.5v1.77h-6.95V13.23zm9.01 0h3.64c1.43-.1 2.85.28 4.03 1.08.87.69 1.26 1.92 1.26 3.54 0 2.23-.7 3.61-2.21 4.07l2.53 8.77h-2.45l-2.37-8.23h-1.98v8.23H159V13.23h.08zm3.48 7.54c.81.06 1.63-.15 2.3-.62.47-.38.7-1.15.7-2.3a4.84 4.84 0 0 0-.24-1.7 1.96 1.96 0 0 0-.86-.92 3.69 3.69 0 0 0-1.74-.3h-1.1v5.76h.94v.08zm8.61 8.69a7.6 7.6 0 0 1-1.1-4.46v-5.85c-.02-1.11.11-2.22.4-3.3.26-.81.78-1.51 1.5-2 .88-.51 1.9-.75 2.92-.7 1.66 0 2.84.39 3.55 1.23a5.77 5.77 0 0 1 1.11 3.85v.62h-2.37v-.54c0-.65-.05-1.29-.16-1.93-.06-.4-.3-.76-.63-1a2.5 2.5 0 0 0-1.5-.38 2.42 2.42 0 0 0-1.58.46 1.73 1.73 0 0 0-.64 1.23c-.1.69-.15 1.38-.15 2.08v6.54c-.06 1 .1 2 .47 2.92.32.62.95.85 1.9.85a1.96 1.96 0 0 0 1.89-.93 6.9 6.9 0 0 0 .56-3.07v-1.23h-2.3v-1.77h4.59v8.69h-1.58l-.24-2c-.2.67-.64 1.25-1.22 1.66-.6.4-1.3.6-2.02.57a4.05 4.05 0 0 1-3.4-1.54zm13.52-4.84L180.8 13.3h2.38l2.76 8.46 2.69-8.46H191l-3.87 11.3v6.16h-2.37v-6.15h-.08z" class="icon-header__min-cat-energy" fill="#111"/><g class="icon-header__cat-superman-tablet"><path d="M59.88 23.8a25.43 25.43 0 0 0-8.05-10.37 25.72 25.72 0 0 0-25.29-3.35A25.6 25.6 0 0 0 16.03 18a25.3 25.3 0 0 0-3.55 25.05 25.42 25.42 0 0 0 7.9 10.49 25.72 25.72 0 0 0 12.13 5.18c-.58-2.07-1.17-4.36-1.69-6.8 1.51.98 3.1 1.83 4.76 2.54 0 0 .12 2.14.28 4.53 1.79.03 3.58-.13 5.33-.47a2.1 2.1 0 0 1 0-.75c.3-1.85 1.1-5.2 1.25-7.35a15.12 15.12 0 0 0 2.9-3.68l-.06.44c-.55 4.22-1.7 8.74-2.4 9.98-.23.42-.5.8-.83 1.15a25.73 25.73 0 0 0 16.96-13.16 25.27 25.27 0 0 0 .87-21.34Zm-1.47 3.77c-.44.42-1.35.71-1.5-.58-.15-1.29-.19-2.2-.19-2.2s-1.93-3.4-2.65-3.43c-.72-.04-5.83 3.44-7.18 4.96-1.17 1.28-1.4 1.19-1.4 3.44 0 1.7.22 8.1.1 13l-8.15 2.15c-2.56.73-5.17 1.3-7.8 1.71l-1-5.78h-.14l-2.57-13.07s-3.81-1.42-5.21-1.81a3.79 3.79 0 0 0-4 .62 5.03 5.03 0 0 0-1.73 3.82c.21.46.37.95.48 1.44.05.48-1.2.43-2 .43s-.92-1.43-.29-3.1c.5-1.3 1.1-2.54 1.82-3.72a11.78 11.78 0 0 1 2.07-2.86s.14-.34 1.25-.24c1.11.1 7.28.42 7.28.42l.05-2.25c6.7-.92 13.47-1.36 20.24-1.33v1.82a22.67 22.67 0 0 1 8.14-1.98.92.92 0 0 1 .77.38c.34.43 2.41 2.98 2.65 3.34.67.96 1.29 1.95 1.83 2.98a6.16 6.16 0 0 1-.87 1.83Z" fill="#FDC305"/><path d="m56.46 21.5 1 1.27c.67.96 1.29 1.95 1.83 2.98a6.17 6.17 0 0 1-.86 1.77c-.44.42-1.35.71-1.5-.58a52.22 52.22 0 0 1-.2-2.14s-1.94-3.4-2.66-3.44c-.72-.04-5.83 3.44-7.18 4.96-1.17 1.28-1.4 1.19-1.4 3.44 0 1.49.17 6.6.13 11.14 1.81.2 4.47.7 5.27 1.86 0 0-.29-7.12 7.81-3.39 0 0 .28-9.71 11.46-7.22a43.67 43.67 0 0 0-13.7-10.65Zm-10.53-2.3c.04-5.5-.43-11-1.4-16.4 0 0-.15-1.3-.87-.24-.6 1.26-1 2.6-1.2 3.97a71.46 71.46 0 0 0-12.82.33c-.82-2.72-2.22-3.96-2.89-3.64-.67.33-.75 3.26-.75 3.26l-.33 14.04c6.71-.92 13.49-1.36 20.26-1.33Z" fill="#F06351"/><path d="M45.35 46.74c.13-1.06.2-2.47.24-4.03l-8.15 2.16a64.43 64.43 0 0 1-7.8 1.75l1.11 4.96c0 .11 0 .22.07.33a32.4 32.4 0 0 0 4.76 2.53 42.49 42.49 0 0 0 6.88-4.1v.06a15.12 15.12 0 0 0 2.9-3.66Z" fill="#E55645"/><path d="M32 16.09c-.05-.1 1 .67 1.41.91.41.24.61.42.61.59 0 .17-.26.33-.62.33s-.92-.11-1-.25c-.08-.14.6 0 .94 0h.3A8.05 8.05 0 0 1 32 16.09Zm7.5.11s-1 1.27-1.09 1.33c-.09.06-.17.33.2.29.4-.07.81-.16 1.21-.28.11-.06.07-.2-.12-.18-.19.02-.68.05-1 .1l.85-1.25s.03-.12-.05-.01Zm-3.14 6.06c.47-.2.85-.55 1.1-1 .27-.65 0-.9-.45-.98-.6-.11-1.23 0-1.75.33-.39.37-.34.73 0 1 .34.26.7.48 1.1.65Z" fill="#000"/><path d="M36 23.5c-.11.23-.27.44-.46.6-.28.23-.63.36-1 .38a2.2 2.2 0 0 1-1.54-.44 2 2 0 0 1-.53-.44 1 1 0 0 0-.36-.25s.75 4.08 2.57 4.73c1.82.66 2.16-.75 2.21-1.13a5.55 5.55 0 0 0-.82-3.21c0-.3-.02-.1-.07-.23Z" fill="#F06351"/><path d="M34.3 24.64a3.52 3.52 0 0 1-2.35-1.42.15.15 0 0 1 0-.2.14.14 0 0 1 .16-.03l.04.03a3.2 3.2 0 0 0 2.11 1.3 2.12 2.12 0 0 0 1.64-.99l.14-.19.1.22s.38.75 1 .8c.62.03 1.06-.42 1.63-1.29a.14.14 0 0 1 .2-.04.14.14 0 0 1 .04.2c-.66.97-1.3 1.44-1.89 1.4a1.56 1.56 0 0 1-1.12-.72 2.25 2.25 0 0 1-1.7.93Z" fill="#000"/><path d="M36.26 38a3.73 3.73 0 0 0 3.75-3.73 3.73 3.73 0 0 0-3.75-3.72 3.73 3.73 0 0 0-3.75 3.72A3.73 3.73 0 0 0 36.26 38Z" fill="#FDC305"/><path d="m41.23 31.25-3.13 1.3 1.15-5.59-7.5 9.68 3.13-1.3-1.15 5.6 7.5-9.7Zm-7.39 3.8L38 29.67l-.8 3.97 2-.82L35 38.2l.81-3.97-1.97.8Zm-1.4-1.46a1.12 1.12 0 1 0 0-2.23 1.12 1.12 0 1 0 0 2.22Zm6.52 4.02a.8.8 0 0 0 .8-.78.79.79 0 0 0-.8-.78.79.79 0 0 0-.79.78c0 .43.36.78.8.78Zm.96-2.15c.2 0 .35-.15.35-.35a.34.34 0 0 0-.35-.34c-.2 0-.35.15-.35.34 0 .2.16.35.35.35Z" fill="#111"/><path d="M45.88 20.99a57.22 57.22 0 0 0-5.09 5.17 31.79 31.79 0 0 1-5.3 4.86c-.23-.53-1.64-1.51-1.64-1.51s-3.14-2.13-5.2-3.8a31.8 31.8 0 0 1-3.14-2.98l-2-.11a22.62 22.62 0 0 0 12 8.76c.86-.13 3.28-1.85 5.1-3.25a57.44 57.44 0 0 0 6-5.86 6.4 6.4 0 0 0 1.13-1.98c-1.14.37-1.86.7-1.86.7Zm-19.95 6.78s-3.8-1.42-5.2-1.81a3.79 3.79 0 0 0-4 .62 5.03 5.03 0 0 0-1.74 3.82c.21.46.37.95.48 1.44.05.48-1.2.43-2 .43s-.92-1.43-.29-3.1c.5-1.3 1.1-2.54 1.82-3.72-5.45 2.82-15 9.33-15 9.33a46.2 46.2 0 0 1 8.19.24c5.25.52 5 4.63 5 4.63 1.85-.5 3.73-.88 5.63-1.1 2.12-.14 2.27 2.1 2.27 2.1l.53 3.83c.8-.87 1.7-1.65 2.65-2.34a6.1 6.1 0 0 1 4.38-1.3l-2.72-13.07Z" fill="#F06351"/></g><g class="icon-header__cat-superman-desktop"><path d="M59.88 23.8a25.43 25.43 0 0 0-8.05-10.37 25.72 25.72 0 0 0-25.29-3.35A25.59 25.59 0 0 0 16.03 18a25.3 25.3 0 0 0-3.55 25.05 25.42 25.42 0 0 0 7.9 10.49 25.72 25.72 0 0 0 12.13 5.18c-.58-2.07-1.17-4.36-1.69-6.8 1.51.98 3.1 1.83 4.76 2.54 0 0 .12 2.14.28 4.53 1.79.03 3.58-.13 5.33-.47a2.1 2.1 0 0 1 0-.75c.3-1.85 1.1-5.2 1.25-7.35a15.11 15.11 0 0 0 2.9-3.68l-.06.44c-.55 4.22-1.7 8.74-2.4 9.98-.23.42-.5.8-.83 1.15a25.73 25.73 0 0 0 16.96-13.16 25.27 25.27 0 0 0 .87-21.34zm-1.47 3.77c-.44.42-1.35.71-1.5-.58-.15-1.29-.19-2.2-.19-2.2s-1.93-3.4-2.65-3.43c-.72-.04-5.83 3.44-7.18 4.96-1.17 1.28-1.4 1.19-1.4 3.44 0 1.7.22 8.1.1 13l-8.15 2.15c-2.56.73-5.17 1.3-7.8 1.71l-1-5.78h-.14l-2.57-13.07s-3.8-1.42-5.2-1.81a3.79 3.79 0 0 0-4.01.62 5.03 5.03 0 0 0-1.73 3.82c.21.46.37.95.48 1.44.05.48-1.2.43-2 .43s-.92-1.43-.29-3.1c.5-1.3 1.1-2.54 1.82-3.72a11.78 11.78 0 0 1 2.07-2.86s.14-.34 1.25-.24c1.11.1 7.28.42 7.28.42l.05-2.25c6.7-.92 13.47-1.36 20.24-1.33v1.82a22.67 22.67 0 0 1 8.14-1.98.92.92 0 0 1 .77.38c.34.43 2.41 2.98 2.65 3.34.67.96 1.29 1.95 1.83 2.98a6.17 6.17 0 0 1-.87 1.83z" fill="#FDC305"/><path d="m56.46 21.5 1 1.27c.68.96 1.29 1.95 1.83 2.98a6.17 6.17 0 0 1-.86 1.77c-.44.42-1.35.71-1.5-.58a52.31 52.31 0 0 1-.2-2.14s-1.94-3.4-2.66-3.44c-.72-.04-5.83 3.44-7.18 4.96-1.17 1.28-1.4 1.19-1.4 3.44 0 1.49.17 6.6.13 11.14 1.81.2 4.47.7 5.27 1.86 0 0-.29-7.12 7.81-3.39 0 0 .28-9.71 11.46-7.22a43.67 43.67 0 0 0-13.7-10.65zm-10.53-2.3c.04-5.5-.43-11-1.4-16.4 0 0-.15-1.3-.87-.24-.6 1.26-1 2.6-1.2 3.97a71.46 71.46 0 0 0-12.82.33c-.82-2.72-2.22-3.96-2.89-3.64-.67.33-.75 3.26-.75 3.26l-.33 14.04c6.71-.92 13.49-1.36 20.26-1.33z" fill="#F06351"/><path d="M45.35 46.74c.13-1.06.2-2.47.24-4.03l-8.15 2.16a64.43 64.43 0 0 1-7.8 1.75l1.11 4.96c0 .11 0 .22.07.33a32.4 32.4 0 0 0 4.76 2.53 42.48 42.48 0 0 0 6.88-4.1v.06a15.12 15.12 0 0 0 2.9-3.66z" fill="#E55645"/><path d="M32 16.09c-.05-.1 1 .67 1.41.91.41.24.61.42.61.59 0 .17-.26.33-.62.33s-.92-.11-1-.25c-.08-.14.6 0 .94 0h.3A8.05 8.05 0 0 1 32 16.09zm7.5.11s-1 1.27-1.09 1.33c-.09.06-.17.33.2.29.4-.07.81-.16 1.21-.28.11-.06.07-.2-.12-.18-.19.02-.68.05-1 .1l.85-1.25s.03-.12-.05-.01zm-3.14 6.06c.47-.2.85-.55 1.1-1 .27-.65 0-.9-.45-.99-.6-.1-1.23.02-1.75.34-.39.37-.34.73 0 1 .34.26.7.48 1.1.65z" fill="#000"/><path d="M36 23.5c-.11.23-.27.44-.46.6-.28.23-.63.36-1 .38a2.2 2.2 0 0 1-1.54-.44 2 2 0 0 1-.53-.44 1 1 0 0 0-.36-.25s.75 4.08 2.57 4.73c1.82.66 2.16-.75 2.21-1.13a5.55 5.55 0 0 0-.82-3.21c0-.3-.02-.1-.07-.23z" fill="#F06351"/><path d="M34.3 24.64a3.52 3.52 0 0 1-2.35-1.42.15.15 0 0 1 0-.2.14.14 0 0 1 .16-.03l.04.03a3.2 3.2 0 0 0 2.11 1.3 2.12 2.12 0 0 0 1.64-.99l.14-.19.1.22s.38.75 1 .8c.62.03 1.06-.42 1.63-1.29a.14.14 0 0 1 .2-.04.14.14 0 0 1 .04.2c-.67.97-1.3 1.44-1.89 1.4a1.56 1.56 0 0 1-1.12-.72 2.25 2.25 0 0 1-1.7.93z" fill="#000"/><path d="M36.26 38a3.73 3.73 0 0 0 3.75-3.73 3.73 3.73 0 0 0-3.75-3.72 3.73 3.73 0 0 0-3.75 3.72A3.73 3.73 0 0 0 36.26 38z" fill="#FDC305"/><path d="m41.23 31.25-3.13 1.3 1.15-5.59-7.5 9.68 3.13-1.3-1.15 5.6 7.5-9.7zm-7.39 3.8L38 29.67l-.8 3.97 2-.82L35 38.2l.81-3.97-1.97.8zm-1.4-1.46a1.12 1.12 0 1 0 0-2.23 1.12 1.12 0 1 0 0 2.22zm6.52 4.02a.8.8 0 0 0 .8-.78.79.79 0 0 0-.8-.78.79.79 0 0 0-.79.78c0 .43.36.78.8.78zm.96-2.15c.2 0 .35-.15.35-.35a.34.34 0 0 0-.35-.34c-.2 0-.35.15-.35.34 0 .2.16.35.35.35z" fill="#111"/><path d="M45.88 20.99a57.22 57.22 0 0 0-5.09 5.17 31.79 31.79 0 0 1-5.3 4.86c-.23-.53-1.64-1.51-1.64-1.51s-3.14-2.13-5.2-3.8a31.78 31.78 0 0 1-3.14-2.98l-2-.11a22.62 22.62 0 0 0 12 8.76c.86-.13 3.28-1.85 5.1-3.25a57.44 57.44 0 0 0 6-5.86 6.4 6.4 0 0 0 1.13-1.98c-1.14.37-1.86.7-1.86.7z" fill="#F06351"/><path d="m65.22 3.47-8.46 9.37-1.22-1.98L63.7 0l1.53 3.47zm-2.57 13.65 5.54-4.08-.78-3.7-5.4 4.77.64 3.01zm-2.73 31.85 6.13 3.16 3.01-2.33-6.69-2.72-2.45 1.9zM1.95 5.92 5.02 2.6l9.29 8.93-1.22 2.26L1.95 5.92zm5.43 10.23-4.7-3.1-2.4 3.83 5.15 2.38 1.95-3.11zm6.53 35.98-4.55 3.32 2.8 3.55 4.02-3.99-2.27-2.88z" fill="#FDC305"/><path d="M25.93 27.77s-3.8-1.42-5.2-1.81a3.79 3.79 0 0 0-4 .62 5.03 5.03 0 0 0-1.74 3.82c.21.46.37.95.48 1.44.05.48-1.2.43-2 .43s-.92-1.43-.29-3.1c.5-1.3 1.1-2.54 1.82-3.72-5.45 2.82-15 9.33-15 9.33a46.2 46.2 0 0 1 8.19.24c5.25.52 5 4.63 5 4.63 1.85-.5 3.73-.88 5.63-1.1 2.12-.14 2.27 2.1 2.27 2.1l.53 3.83c.8-.87 1.7-1.65 2.65-2.34a6.1 6.1 0 0 1 4.38-1.3l-2.72-13.07z" fill="#F06351"/></g><path d="M85.66 41.66a8.17 8.17 0 0 1-1.4-5.15v-7.44a8.3 8.3 0 0 1 1.38-5.2c.93-1.18 2.51-1.77 4.75-1.76 2.24 0 3.76.53 4.55 1.56a6.63 6.63 0 0 1 1.33 4.45v1.75h-4.14v-1.9c0-.5-.04-1-.13-1.49a1.66 1.66 0 0 0-.47-.94 1.56 1.56 0 0 0-1.15-.36 1.47 1.47 0 0 0-1.5.74 5.6 5.6 0 0 0-.34 2.18v9.44c-.04.75.1 1.5.4 2.19a1.48 1.48 0 0 0 1.44.72 1.36 1.36 0 0 0 1.4-.73c.25-.7.35-1.44.31-2.18v-1.98h4.14v1.72A7.15 7.15 0 0 1 95 41.85c-.88 1.1-2.4 1.63-4.56 1.63-2.16 0-3.85-.6-4.78-1.82Zm16.26-19.26h4.73l4 20.83h-3.94l-.7-4.6h-3.33l-.8 4.57h-4l4.04-20.8Zm3.64 13.6-1.25-8.36-1.25 8.37h2.5Zm8.16-10.47h-3.23V22.4h10.72v3.13H118V43.2h-4.3l.02-17.67Z" fill="#111" class="icon-header__cat"/><path d="M129.62 22.4h8.13v2.16h-5.2v6.87h4.22v2.06h-4.22v7.63h5.25v2.08h-8.18V22.4Zm10.54 0h2l6 13.82V22.4h2.44v20.83h-1.87l-6-14.2V43.2h-2.48l-.1-20.8Zm13.67 0h8.12v2.16h-5.2v6.87H161v2.06h-4.22v7.63H162v2.08h-8.18V22.4Zm10.53 0h4.22a7.04 7.04 0 0 1 4.67 1.3c1 .86 1.49 2.27 1.49 4.22 0 2.65-.87 4.26-2.6 4.85l3 10.43h-2.83l-2.75-9.76h-2.27v9.76h-2.93V22.4Zm4 8.93a3.9 3.9 0 0 0 2.7-.76 3.54 3.54 0 0 0 .82-2.69 5.76 5.76 0 0 0-.3-1.98 1.88 1.88 0 0 0-1-1.07 4.8 4.8 0 0 0-2.04-.35h-1.3v6.88l1.12-.03Zm10.32 10.33a9.11 9.11 0 0 1-1.27-5.3V29.4a13 13 0 0 1 .5-3.97c.29-.97.9-1.81 1.74-2.39a5.9 5.9 0 0 1 3.36-.83 5.3 5.3 0 0 1 4.18 1.47 6.9 6.9 0 0 1 1.28 4.59v.77h-2.75v-.64a11.3 11.3 0 0 0-.18-2.3 2 2 0 0 0-.76-1.22 3.02 3.02 0 0 0-1.72-.4c-.65-.06-1.3.13-1.81.55-.42.39-.69.9-.77 1.46-.13.82-.19 1.65-.17 2.47v7.73a7.4 7.4 0 0 0 .59 3.43 2.83 2.83 0 0 0 3.5.73c.38-.2.71-.47.97-.82a8 8 0 0 0 .6-3.62v-1.46h-2.65V32.9h5.3v10.3h-1.81l-.3-2.4a3.66 3.66 0 0 1-3.72 2.66 4.7 4.7 0 0 1-4.11-1.8Zm16.02-5.8-4.53-13.46h2.72l3.2 10.04 3.17-10.04H202l-4.5 13.46v7.34h-2.8l-.01-7.34Z" fill="#444" class="icon-header__cat-energy"/></svg>